<svg xmlns="http://www.w3.org/2000/svg" viewBox="0 0 512 512">
  <rect width="512" height="512" fill="none"/>
  <path fill="#f97316" d="M432 256c0 88.37-71.63 160-160 160s-160-71.63-160-160 71.63-160 160-160 160 71.63 160 160z"/>
  <path fill="#fbbf24" d="M384 232c0 59.46-48.54 108-108 108s-108-48.54-108-108 48.54-108 108-108 108 48.54 108 108z"/>
  <circle cx="200" cy="184" r="16" fill="#111827"/>
  <circle cx="300" cy="184" r="16" fill="#111827"/>
  <path fill="#111827" d="M250 328c-17.6 0-32-14.4-32-32h16c0 8.8 7.2 16 16 16s16-7.2 16-16h16c0 17.6-14.4 32-32 32z"/>
  <path fill="#d1d5db" d="M128 176c-8.8 0-16-7.2-16-16v-48c0-8.8 7.2-16 16-16h64c8.8 0 16 7.2 16 16v48c0 8.8-7.2 16-16 16h-64z"/>
  <path fill="#f97316" d="M112 160c0 8.8 7.2 16 16 16h64c8.8 0 16-7.2 16-16v-48c0-8.8-7.2-16-16-16h-64c-8.8 0-16 7.2-16 16v48z"/>
  <rect x="340" y="224" width="32" height="64" rx="16" ry="16" fill="#111827"/>
</svg> 